<mxfile host="Electron" agent="Mozilla/5.0 (Windows NT 10.0; Win64; x64) AppleWebKit/537.36 (KHTML, like Gecko) draw.io/28.2.5 Chrome/138.0.7204.251 Electron/37.6.1 Safari/537.36" scale="1" border="0" version="28.2.5">
  <diagram name="Página-1" id="Bal2X1R5Q2hq3wp9pTC3">
    <mxGraphModel dx="1594" dy="579" grid="1" gridSize="10" guides="1" tooltips="1" connect="1" arrows="1" fold="1" page="1" pageScale="1" pageWidth="827" pageHeight="1169" math="0" shadow="0">
      <root>
        <mxCell id="0" />
        <mxCell id="1" parent="0" />
        <mxCell id="rrYwsRY4cD0M-CuhLtuG-1" value="Administrador" style="shape=umlActor;verticalLabelPosition=bottom;verticalAlign=top;html=1;outlineConnect=0;" parent="1" vertex="1">
          <mxGeometry x="140" y="20" width="20" height="40" as="geometry" />
        </mxCell>
        <mxCell id="rrYwsRY4cD0M-CuhLtuG-2" value="" style="endArrow=none;html=1;rounded=0;dashed=1;dashPattern=8 8;" parent="1" edge="1">
          <mxGeometry width="50" height="50" relative="1" as="geometry">
            <mxPoint x="150" y="1150" as="sourcePoint" />
            <mxPoint x="150" y="110" as="targetPoint" />
          </mxGeometry>
        </mxCell>
        <mxCell id="rrYwsRY4cD0M-CuhLtuG-3" value="" style="endArrow=none;html=1;rounded=0;dashed=1;dashPattern=8 8;" parent="1" edge="1">
          <mxGeometry width="50" height="50" relative="1" as="geometry">
            <mxPoint x="310" y="1140" as="sourcePoint" />
            <mxPoint x="310" y="100" as="targetPoint" />
          </mxGeometry>
        </mxCell>
        <mxCell id="rrYwsRY4cD0M-CuhLtuG-4" value="&amp;nbsp;[Flujo Normal: Credenciales Válidas]&lt;div&gt;&lt;br&gt;&lt;/div&gt;" style="edgeLabel;html=1;align=center;verticalAlign=middle;resizable=0;points=[];" parent="rrYwsRY4cD0M-CuhLtuG-3" vertex="1" connectable="0">
          <mxGeometry x="-0.246" y="1" relative="1" as="geometry">
            <mxPoint as="offset" />
          </mxGeometry>
        </mxCell>
        <mxCell id="rrYwsRY4cD0M-CuhLtuG-5" value="&amp;nbsp;[Flujo Alternativo: Credenciales Inválidas]" style="edgeLabel;html=1;align=center;verticalAlign=middle;resizable=0;points=[];" parent="rrYwsRY4cD0M-CuhLtuG-3" vertex="1" connectable="0">
          <mxGeometry x="-0.774" y="1" relative="1" as="geometry">
            <mxPoint y="3" as="offset" />
          </mxGeometry>
        </mxCell>
        <mxCell id="rrYwsRY4cD0M-CuhLtuG-6" value="" style="endArrow=none;html=1;rounded=0;dashed=1;dashPattern=8 8;" parent="1" edge="1">
          <mxGeometry width="50" height="50" relative="1" as="geometry">
            <mxPoint x="470" y="1130" as="sourcePoint" />
            <mxPoint x="470" y="100" as="targetPoint" />
          </mxGeometry>
        </mxCell>
        <mxCell id="rrYwsRY4cD0M-CuhLtuG-7" value="" style="endArrow=none;html=1;rounded=0;dashed=1;dashPattern=8 8;" parent="1" edge="1">
          <mxGeometry width="50" height="50" relative="1" as="geometry">
            <mxPoint x="630" y="1143" as="sourcePoint" />
            <mxPoint x="630" y="100" as="targetPoint" />
          </mxGeometry>
        </mxCell>
        <mxCell id="rrYwsRY4cD0M-CuhLtuG-8" value="" style="endArrow=none;html=1;rounded=0;dashed=1;dashPattern=8 8;" parent="1" edge="1">
          <mxGeometry width="50" height="50" relative="1" as="geometry">
            <mxPoint x="790" y="1140" as="sourcePoint" />
            <mxPoint x="790" y="100" as="targetPoint" />
          </mxGeometry>
        </mxCell>
        <mxCell id="rrYwsRY4cD0M-CuhLtuG-9" value="Interfaz Login" style="rounded=0;whiteSpace=wrap;html=1;" parent="1" vertex="1">
          <mxGeometry x="270" y="50" width="80" height="30" as="geometry" />
        </mxCell>
        <mxCell id="rrYwsRY4cD0M-CuhLtuG-10" value="Controlador" style="rounded=0;whiteSpace=wrap;html=1;" parent="1" vertex="1">
          <mxGeometry x="420" y="50" width="100" height="30" as="geometry" />
        </mxCell>
        <mxCell id="rrYwsRY4cD0M-CuhLtuG-11" value="Modelo Usuario" style="rounded=0;whiteSpace=wrap;html=1;" parent="1" vertex="1">
          <mxGeometry x="580" y="50" width="100" height="30" as="geometry" />
        </mxCell>
        <mxCell id="rrYwsRY4cD0M-CuhLtuG-12" value="Base de datos" style="rounded=0;whiteSpace=wrap;html=1;" parent="1" vertex="1">
          <mxGeometry x="737" y="50" width="90" height="30" as="geometry" />
        </mxCell>
        <mxCell id="rrYwsRY4cD0M-CuhLtuG-13" value="" style="endArrow=classic;html=1;rounded=0;" parent="1" edge="1">
          <mxGeometry width="50" height="50" relative="1" as="geometry">
            <mxPoint x="150" y="180" as="sourcePoint" />
            <mxPoint x="310" y="180" as="targetPoint" />
          </mxGeometry>
        </mxCell>
        <mxCell id="rrYwsRY4cD0M-CuhLtuG-14" value="" style="endArrow=classic;html=1;rounded=0;" parent="1" edge="1">
          <mxGeometry width="50" height="50" relative="1" as="geometry">
            <mxPoint x="150" y="260" as="sourcePoint" />
            <mxPoint x="310" y="260" as="targetPoint" />
          </mxGeometry>
        </mxCell>
        <mxCell id="rrYwsRY4cD0M-CuhLtuG-15" value="" style="endArrow=classic;html=1;rounded=0;" parent="1" edge="1">
          <mxGeometry width="50" height="50" relative="1" as="geometry">
            <mxPoint x="310" y="300" as="sourcePoint" />
            <mxPoint x="470" y="300" as="targetPoint" />
          </mxGeometry>
        </mxCell>
        <mxCell id="rrYwsRY4cD0M-CuhLtuG-16" value="" style="endArrow=classic;html=1;rounded=0;" parent="1" edge="1">
          <mxGeometry width="50" height="50" relative="1" as="geometry">
            <mxPoint x="470" y="340" as="sourcePoint" />
            <mxPoint x="630" y="340" as="targetPoint" />
          </mxGeometry>
        </mxCell>
        <mxCell id="rrYwsRY4cD0M-CuhLtuG-17" value="" style="endArrow=classic;html=1;rounded=0;" parent="1" edge="1">
          <mxGeometry width="50" height="50" relative="1" as="geometry">
            <mxPoint x="630" y="380" as="sourcePoint" />
            <mxPoint x="790" y="380" as="targetPoint" />
          </mxGeometry>
        </mxCell>
        <mxCell id="rrYwsRY4cD0M-CuhLtuG-18" value="" style="endArrow=classic;html=1;rounded=0;" parent="1" edge="1">
          <mxGeometry width="50" height="50" relative="1" as="geometry">
            <mxPoint x="790" y="460" as="sourcePoint" />
            <mxPoint x="470" y="460" as="targetPoint" />
          </mxGeometry>
        </mxCell>
        <mxCell id="rrYwsRY4cD0M-CuhLtuG-19" value="" style="endArrow=classic;html=1;rounded=0;" parent="1" edge="1">
          <mxGeometry width="50" height="50" relative="1" as="geometry">
            <mxPoint x="630" y="580" as="sourcePoint" />
            <mxPoint x="310" y="580" as="targetPoint" />
          </mxGeometry>
        </mxCell>
        <mxCell id="rrYwsRY4cD0M-CuhLtuG-20" value="" style="endArrow=classic;html=1;rounded=0;" parent="1" edge="1">
          <mxGeometry width="50" height="50" relative="1" as="geometry">
            <mxPoint x="630" y="860" as="sourcePoint" />
            <mxPoint x="310" y="860" as="targetPoint" />
          </mxGeometry>
        </mxCell>
        <mxCell id="rrYwsRY4cD0M-CuhLtuG-21" value="" style="endArrow=classic;html=1;rounded=0;" parent="1" edge="1">
          <mxGeometry width="50" height="50" relative="1" as="geometry">
            <mxPoint x="470" y="940" as="sourcePoint" />
            <mxPoint x="150" y="940" as="targetPoint" />
          </mxGeometry>
        </mxCell>
        <mxCell id="rrYwsRY4cD0M-CuhLtuG-22" value="" style="endArrow=classic;html=1;rounded=0;" parent="1" edge="1">
          <mxGeometry width="50" height="50" relative="1" as="geometry">
            <mxPoint x="630" y="1000" as="sourcePoint" />
            <mxPoint x="310" y="1000" as="targetPoint" />
          </mxGeometry>
        </mxCell>
        <mxCell id="rrYwsRY4cD0M-CuhLtuG-23" value="" style="endArrow=classic;html=1;rounded=0;" parent="1" edge="1">
          <mxGeometry width="50" height="50" relative="1" as="geometry">
            <mxPoint x="470" y="1100" as="sourcePoint" />
            <mxPoint x="150" y="1100" as="targetPoint" />
          </mxGeometry>
        </mxCell>
        <mxCell id="rrYwsRY4cD0M-CuhLtuG-24" value="" style="endArrow=classic;html=1;rounded=0;" parent="1" edge="1">
          <mxGeometry width="50" height="50" relative="1" as="geometry">
            <mxPoint x="470" y="780" as="sourcePoint" />
            <mxPoint x="630" y="780" as="targetPoint" />
          </mxGeometry>
        </mxCell>
        <mxCell id="rrYwsRY4cD0M-CuhLtuG-25" value="Acceder Login ()" style="text;html=1;align=center;verticalAlign=middle;whiteSpace=wrap;rounded=0;" parent="1" vertex="1">
          <mxGeometry x="150" y="150" width="160" height="30" as="geometry" />
        </mxCell>
        <mxCell id="rrYwsRY4cD0M-CuhLtuG-26" value="Ingresar Credenciales ()" style="text;html=1;align=center;verticalAlign=middle;whiteSpace=wrap;rounded=0;" parent="1" vertex="1">
          <mxGeometry x="150" y="230" width="160" height="30" as="geometry" />
        </mxCell>
        <mxCell id="rrYwsRY4cD0M-CuhLtuG-27" value="Validar Credenciales ()" style="text;html=1;align=center;verticalAlign=middle;whiteSpace=wrap;rounded=0;" parent="1" vertex="1">
          <mxGeometry x="310" y="270" width="160" height="30" as="geometry" />
        </mxCell>
        <mxCell id="rrYwsRY4cD0M-CuhLtuG-28" value="Buscar Usuario ()" style="text;html=1;align=center;verticalAlign=middle;whiteSpace=wrap;rounded=0;" parent="1" vertex="1">
          <mxGeometry x="473" y="310" width="160" height="30" as="geometry" />
        </mxCell>
        <mxCell id="rrYwsRY4cD0M-CuhLtuG-29" value="Consultar Base Datos ()" style="text;html=1;align=center;verticalAlign=middle;whiteSpace=wrap;rounded=0;" parent="1" vertex="1">
          <mxGeometry x="630" y="350" width="160" height="30" as="geometry" />
        </mxCell>
        <mxCell id="rrYwsRY4cD0M-CuhLtuG-30" value="(Datos Usuario)" style="text;html=1;align=center;verticalAlign=middle;whiteSpace=wrap;rounded=0;" parent="1" vertex="1">
          <mxGeometry x="470" y="550" width="160" height="30" as="geometry" />
        </mxCell>
        <mxCell id="rrYwsRY4cD0M-CuhLtuG-31" value="Redirigir Dashboard ()" style="text;html=1;align=center;verticalAlign=middle;whiteSpace=wrap;rounded=0;" parent="1" vertex="1">
          <mxGeometry x="470" y="750" width="160" height="30" as="geometry" />
        </mxCell>
        <mxCell id="rrYwsRY4cD0M-CuhLtuG-32" value="(Redirección por Rol)" style="text;html=1;align=center;verticalAlign=middle;whiteSpace=wrap;rounded=0;" parent="1" vertex="1">
          <mxGeometry x="310" y="910" width="160" height="30" as="geometry" />
        </mxCell>
        <mxCell id="rrYwsRY4cD0M-CuhLtuG-33" value="Mensaje de ERROR" style="text;html=1;align=center;verticalAlign=middle;whiteSpace=wrap;rounded=0;" parent="1" vertex="1">
          <mxGeometry x="310" y="1070" width="160" height="30" as="geometry" />
        </mxCell>
        <mxCell id="rrYwsRY4cD0M-CuhLtuG-34" value="Mensaje de ERROR" style="text;html=1;align=center;verticalAlign=middle;whiteSpace=wrap;rounded=0;" parent="1" vertex="1">
          <mxGeometry x="153" y="1109" width="160" height="30" as="geometry" />
        </mxCell>
        <mxCell id="rrYwsRY4cD0M-CuhLtuG-35" value="&amp;nbsp;Acceso Exitoso" style="text;html=1;align=center;verticalAlign=middle;whiteSpace=wrap;rounded=0;" parent="1" vertex="1">
          <mxGeometry x="150" y="940" width="160" height="30" as="geometry" />
        </mxCell>
        <mxCell id="rrYwsRY4cD0M-CuhLtuG-36" value="(Respuesta Valida)" style="text;html=1;align=center;verticalAlign=middle;whiteSpace=wrap;rounded=0;" parent="1" vertex="1">
          <mxGeometry x="313" y="580" width="160" height="30" as="geometry" />
        </mxCell>
        <mxCell id="rrYwsRY4cD0M-CuhLtuG-37" value="" style="endArrow=none;html=1;rounded=0;" parent="1" edge="1">
          <mxGeometry width="50" height="50" relative="1" as="geometry">
            <mxPoint x="150" y="1139" as="sourcePoint" />
            <mxPoint x="790" y="1139" as="targetPoint" />
          </mxGeometry>
        </mxCell>
        <mxCell id="Z7hbolVClJEuScZ4HqBD-5" value="AUTORIA" style="swimlane;fontStyle=0;childLayout=stackLayout;horizontal=1;startSize=26;fillColor=none;horizontalStack=0;resizeParent=1;resizeParentMax=0;resizeLast=0;collapsible=1;marginBottom=0;whiteSpace=wrap;html=1;" vertex="1" parent="1">
          <mxGeometry x="-40" y="1050" width="180" height="104" as="geometry" />
        </mxCell>
        <mxCell id="Z7hbolVClJEuScZ4HqBD-6" value="ALEJANDRO HERNANDES" style="text;strokeColor=none;fillColor=none;align=left;verticalAlign=top;spacingLeft=4;spacingRight=4;overflow=hidden;rotatable=0;points=[[0,0.5],[1,0.5]];portConstraint=eastwest;whiteSpace=wrap;html=1;" vertex="1" parent="Z7hbolVClJEuScZ4HqBD-5">
          <mxGeometry y="26" width="180" height="26" as="geometry" />
        </mxCell>
        <mxCell id="Z7hbolVClJEuScZ4HqBD-7" value="DANIEL VELOZA&amp;nbsp;" style="text;strokeColor=none;fillColor=none;align=left;verticalAlign=top;spacingLeft=4;spacingRight=4;overflow=hidden;rotatable=0;points=[[0,0.5],[1,0.5]];portConstraint=eastwest;whiteSpace=wrap;html=1;" vertex="1" parent="Z7hbolVClJEuScZ4HqBD-5">
          <mxGeometry y="52" width="180" height="26" as="geometry" />
        </mxCell>
        <mxCell id="Z7hbolVClJEuScZ4HqBD-8" value="FECHA: 21/10/2025" style="text;strokeColor=none;fillColor=none;align=left;verticalAlign=top;spacingLeft=4;spacingRight=4;overflow=hidden;rotatable=0;points=[[0,0.5],[1,0.5]];portConstraint=eastwest;whiteSpace=wrap;html=1;" vertex="1" parent="Z7hbolVClJEuScZ4HqBD-5">
          <mxGeometry y="78" width="180" height="26" as="geometry" />
        </mxCell>
      </root>
    </mxGraphModel>
  </diagram>
</mxfile>
